<svg width="479" height="55" viewBox="0 0 479 55" fill="none" xmlns="http://www.w3.org/2000/svg">
<path d="M14.3125 0.6875C19.3542 0.6875 23.2083 1.83333 25.875 4.125C28.5417 6.39583 29.875 9.6875 29.875 14C29.875 18.2708 28.5208 21.5729 25.8125 23.9062C23.1042 26.2188 19.2708 27.375 14.3125 27.375H7.09375V46H0.9375V0.6875H14.3125ZM14.3125 21.9375C20.4167 21.9375 23.4688 19.2917 23.4688 14C23.4688 11.3542 22.7188 9.38542 21.2188 8.09375C19.7396 6.78125 17.4375 6.125 14.3125 6.125H7.09375V21.9375H14.3125ZM43.7812 46H37.625V0.6875H51C56.2917 0.6875 60.3125 1.83333 63.0625 4.125C65.8333 6.39583 67.2188 9.6875 67.2188 14C67.2188 17.0625 66.4792 19.6354 65 21.7188C63.5208 23.7812 61.375 25.3021 58.5625 26.2812L68.875 46H61.7812L52.1562 27.375H43.7812V46ZM51 21.9375C57.5417 21.9375 60.8125 19.2917 60.8125 14C60.8125 11.3542 60.0104 9.38542 58.4062 8.09375C56.8021 6.78125 54.3333 6.125 51 6.125H43.7812V21.9375H51ZM94.5625 0.1875C101.083 0.1875 106.135 2.19792 109.719 6.21875C113.302 10.2188 115.094 15.8646 115.094 23.1562C115.094 30.6979 113.323 36.5 109.781 40.5625C106.24 44.6042 101.167 46.625 94.5625 46.625C87.9167 46.625 82.8125 44.6146 79.25 40.5938C75.7083 36.5521 73.9375 30.7396 73.9375 23.1562C73.9375 15.8229 75.7292 10.1667 79.3125 6.1875C82.8958 2.1875 87.9792 0.1875 94.5625 0.1875ZM94.5625 5.9375C89.9583 5.9375 86.4375 7.41667 84 10.375C81.5625 13.3125 80.3438 17.5729 80.3438 23.1562C80.3438 28.8646 81.5729 33.25 84.0312 36.3125C86.4896 39.3542 90 40.875 94.5625 40.875C99.125 40.875 102.615 39.3438 105.031 36.2812C107.469 33.1979 108.688 28.8229 108.688 23.1562C108.688 17.6146 107.469 13.3646 105.031 10.4062C102.615 7.42708 99.125 5.9375 94.5625 5.9375ZM117.5 50.75C120.229 49.625 122.542 47.8646 124.438 45.4688C126.333 43.0521 127.281 40.6458 127.281 38.25V6.125H118.406V0.6875H133.312V38.25C133.312 40.4583 132.708 42.6875 131.5 44.9375C130.312 47.1875 128.677 49.1979 126.594 50.9688C124.531 52.7396 122.271 54.0521 119.812 54.9062L117.5 50.75ZM151.156 19.5625H169.844V25H151.156V40.5625H172.656V46H145V0.6875H171.969V6.125H151.156V19.5625ZM208.938 6.125H195.688V46H189.531V6.125H175.5V0.6875H208.938V6.125ZM232.25 0.1875C238.771 0.1875 243.823 2.19792 247.406 6.21875C250.99 10.2188 252.781 15.8646 252.781 23.1562C252.781 30.6979 251.01 36.5 247.469 40.5625C243.927 44.6042 238.854 46.625 232.25 46.625C225.604 46.625 220.5 44.6146 216.938 40.5938C213.396 36.5521 211.625 30.7396 211.625 23.1562C211.625 15.8229 213.417 10.1667 217 6.1875C220.583 2.1875 225.667 0.1875 232.25 0.1875ZM232.25 5.9375C227.646 5.9375 224.125 7.41667 221.688 10.375C219.25 13.3125 218.031 17.5729 218.031 23.1562C218.031 28.8646 219.26 33.25 221.719 36.3125C224.177 39.3542 227.688 40.875 232.25 40.875C236.812 40.875 240.302 39.3438 242.719 36.2812C245.156 33.1979 246.375 28.8229 246.375 23.1562C246.375 17.6146 245.156 13.3646 242.719 10.4062C240.302 7.42708 236.812 5.9375 232.25 5.9375ZM292.469 0.6875C299.51 0.6875 304.896 2.625 308.625 6.5C312.375 10.3542 314.25 15.9271 314.25 23.2188C314.25 30.5104 312.354 36.1354 308.562 40.0938C304.792 44.0312 299.427 46 292.469 46H277.812V0.6875H292.469ZM292.469 40.5625C297.469 40.5625 301.281 39.0938 303.906 36.1562C306.531 33.1979 307.844 28.8854 307.844 23.2188C307.844 17.6354 306.542 13.3958 303.938 10.5C301.333 7.58333 297.51 6.125 292.469 6.125H283.969V40.5625H292.469ZM329.406 19.5625H348.094V25H329.406V40.5625H350.906V46H323.25V0.6875H350.219V6.125H329.406V19.5625ZM400.75 6.125H387.5V46H381.344V6.125H367.312V0.6875H400.75V6.125ZM424.938 0.1875C427.25 0.1875 429.542 0.510417 431.812 1.15625C434.104 1.78125 436.25 2.70833 438.25 3.9375L435.688 8.9375C433.729 7.875 431.885 7.11458 430.156 6.65625C428.427 6.17708 426.688 5.9375 424.938 5.9375C420.125 5.9375 416.406 7.4375 413.781 10.4375C411.156 13.4167 409.844 17.6771 409.844 23.2188C409.844 28.8021 411.135 33.1146 413.719 36.1562C416.302 39.1771 419.979 40.6875 424.75 40.6875C428.542 40.6875 432.406 39.7917 436.344 38L438.594 43.25C436.51 44.2292 434.219 45.0104 431.719 45.5938C429.219 46.1562 426.812 46.4375 424.5 46.4375C417.667 46.4375 412.448 44.4479 408.844 40.4688C405.24 36.4688 403.438 30.7188 403.438 23.2188C403.438 18.4479 404.292 14.3333 406 10.875C407.708 7.41667 410.167 4.77083 413.375 2.9375C416.604 1.10417 420.458 0.1875 424.938 0.1875ZM464.5 0.1875C466.812 0.1875 469.104 0.510417 471.375 1.15625C473.667 1.78125 475.812 2.70833 477.812 3.9375L475.25 8.9375C473.292 7.875 471.448 7.11458 469.719 6.65625C467.99 6.17708 466.25 5.9375 464.5 5.9375C459.688 5.9375 455.969 7.4375 453.344 10.4375C450.719 13.4167 449.406 17.6771 449.406 23.2188C449.406 28.8021 450.698 33.1146 453.281 36.1562C455.865 39.1771 459.542 40.6875 464.312 40.6875C468.104 40.6875 471.969 39.7917 475.906 38L478.156 43.25C476.073 44.2292 473.781 45.0104 471.281 45.5938C468.781 46.1562 466.375 46.4375 464.062 46.4375C457.229 46.4375 452.01 44.4479 448.406 40.4688C444.802 36.4688 443 30.7188 443 23.2188C443 18.4479 443.854 14.3333 445.562 10.875C447.271 7.41667 449.729 4.77083 452.938 2.9375C456.167 1.10417 460.021 0.1875 464.5 0.1875Z" fill="#ECD6C4"/>
</svg>
